<svg xmlns="http://www.w3.org/2000/svg" width="16" height="16" viewBox="0 0 16 16">
  <defs>
    <radialGradient id="bg" cx="0" cy="0" r="1" gradientUnits="userSpaceOnUse" gradientTransform="translate(7.25 7.25) scale(4.95)">
      <stop offset="0" stop-color="#7D8397"/>
      <stop offset="1" stop-color="#373D4D"/>
    </radialGradient>
    <radialGradient id="shade" cx="0" cy="0" r="1" gradientUnits="userSpaceOnUse" gradientTransform="translate(7.22 7.22) scale(4.83)">
      <stop offset="0" stop-color="#7D8397" stop-opacity="0"/>
      <stop offset="0.82" stop-color="#202430" stop-opacity="0.45"/>
      <stop offset="1" stop-color="#202430" stop-opacity="0.78"/>
    </radialGradient>
    <linearGradient id="ring" x1="7.25" y1="2.3" x2="7.25" y2="12.2" gradientUnits="userSpaceOnUse">
      <stop offset="0" stop-color="#F2F5FF"/>
      <stop offset="1" stop-color="#BAC1D6"/>
    </linearGradient>
    <linearGradient id="panel" x1="10.78" y1="13.25" x2="10.69" y2="8.3" gradientUnits="userSpaceOnUse">
      <stop offset="0" stop-color="#454C5E"/>
      <stop offset="1" stop-color="#696F85"/>
    </linearGradient>
    <linearGradient id="tileTop" x1="9.2" y1="9.15" x2="11.75" y2="9.15" gradientUnits="userSpaceOnUse">
      <stop offset="0" stop-color="#FBFDFF"/>
      <stop offset="1" stop-color="#C7D0E6"/>
    </linearGradient>
    <linearGradient id="tileBottom" x1="8.35" y1="10.7" x2="10.9" y2="10.7" gradientUnits="userSpaceOnUse">
      <stop offset="0" stop-color="#F9FCFF"/>
      <stop offset="1" stop-color="#B7C1D8"/>
    </linearGradient>
  </defs>
  <circle cx="7.25" cy="7.25" r="4.95" fill="url(#bg)"/>
  <path fill="#FAFCFF" d="M10.3 4.2v-.84a4.92 4.92 0 0 0-3.05-1.06V4.2z"/>
  <path fill="#FAFCFF" d="M10.3 7.25H7.25v3.05h3.05z"/>
  <path fill="#FAFCFF" d="M7.25 4.2H4.2v3.05h3.05z"/>
  <path fill="#FAFCFF" d="M12.2 7.25A4.92 4.92 0 0 0 11.14 4.2h-.84v3.05z"/>
  <path fill="#FAFCFF" d="M11.14 10.3h-.84v.84c.31-.24.6-.52.84-.84z"/>
  <path fill="#FAFCFF" d="M4.2 11.14c.86.69 1.93 1.06 3.05 1.06V10.3H4.2z"/>
  <path fill="#FAFCFF" d="M2.3 7.25c0 1.12.37 2.2 1.06 3.05h.84V7.25z"/>
  <path fill="#FAFCFF" d="M3.36 4.2h.84v-.84c-.32.24-.6.52-.84.84z"/>
  <circle cx="7.22" cy="7.22" r="4.83" fill="url(#shade)"/>
  <circle cx="7.25" cy="7.25" r="4.95" fill="none" stroke="url(#ring)" stroke-width=".5"/>

  <rect x="7.35" y="8.3" width="6.25" height="4.95" rx=".95" fill="url(#panel)"/>
  <rect x="9.2" y="8.35" width="2.55" height="1.6" rx=".35" fill="url(#tileTop)" opacity=".85"/>
  <rect x="8.35" y="9.9" width="2.55" height="1.6" rx=".35" fill="#000000" opacity=".28"/>
  <rect x="8.55" y="10.1" width="2.35" height="1.2" rx=".3" fill="url(#tileBottom)"/>
</svg>
